# xmcd
#
# Track frame offsets:
#	150
#	15595
#	31911
#	44429
#	59696
#	75101
#	90853
#	103325
#	113634
#	124500
#	139481
#	153106
#	166370
#	180280
#	195508
#	208809
#	221853
#	232844
#	242760
#	258436
#
# Disc length: 3674 seconds
#
# Revision: 0
# Processed by: cddbd v1.5.2PL0 Copyright (c) Steve Scherf et al.
# Submitted via: EasyCDDAExtractor 11.0.0.1
#
DISCID=030e5814
DTITLE=Racyne and Rafael - Racyne and Rafael Matematicamente
DYEAR=2010
DGENRE=Sertanejo
TTITLE0=Amor de Novela
TTITLE1=Matematicamente
TTITLE2=Vôo 777
TTITLE3=Só a Saudade de Você
TTITLE4=Eu Bebi Demais
TTITLE5=Até as Pedras Se Encontram
TTITLE6=Sonho Bobo
TTITLE7=Promesa de Malandro
TTITLE8=Será Que Todo Amor é Assim
TTITLE9=No POnto Que Parou
TTITLE10=Eu Tô Pagando Pra Ver
TTITLE11=Pode Implorar
TTITLE12=Minha Menina
TTITLE13=Te Quero Agora
TTITLE14=Cupido Locutor
TTITLE15=Cinderela
TTITLE16=Essa Canção
TTITLE17=Não Dá Mais
TTITLE18=Se Você Ama Perdoa
TTITLE19=Jesus Me Ama
EXTD=
EXTT0=
EXTT1=
EXTT2=
EXTT3=
EXTT4=
EXTT5=
EXTT6=
EXTT7=
EXTT8=
EXTT9=
EXTT10=
EXTT11=
EXTT12=
EXTT13=
EXTT14=
EXTT15=
EXTT16=
EXTT17=
EXTT18=
EXTT19=
PLAYORDER=
